<svg xmlns="http://www.w3.org/2000/svg" xmlns:xlink="http://www.w3.org/1999/xlink" viewBox="0 0 100 125" version="1.1" x="0px" y="0px"><title>magn_gls-13 copy</title><desc>Created with Sketch.</desc><g stroke="none" stroke-width="1" fill="none" fill-rule="evenodd"><path d="M88.9552284,24 L95,24 L95,76.2860655 L88.9552284,76.2860655 L88.9552284,76.285461 L88.9552284,24 Z M52.3069871,59.0403321 C47.3925878,59.0403321 43.4090833,55.0568276 43.4090833,50.1430327 C43.4090833,45.2286334 47.3925878,41.2451289 52.3069871,41.2451289 C57.2207819,41.2451289 61.2042864,45.2286334 61.2042864,50.1430327 C61.2042864,55.0568276 57.2207819,59.0403321 52.3069871,59.0403321 L52.3069871,59.0403321 Z M26.0750962,59.0403321 C21.1606969,59.0403321 17.1771924,55.0568276 17.1771924,50.1430327 C17.1771924,45.2286334 21.1606969,41.2451289 26.0750962,41.2451289 C30.9888911,41.2451289 34.9723955,45.2286334 34.9723955,50.1430327 C34.9723955,55.0568276 30.9888911,59.0403321 26.0750962,59.0403321 L26.0750962,59.0403321 Z M78.5382735,59.0403321 C73.6244786,59.0403321 69.6409741,55.0568276 69.6409741,50.1430327 C69.6409741,45.2286334 73.6244786,41.2451289 78.5382735,41.2451289 C80.2737274,41.2451289 81.8870769,41.7498674 83.2556132,42.6082249 L83.2556132,28.8539516 L5,28.8539516 L5,71.4321139 L83.2556132,71.4321139 L83.2556132,57.6772361 C81.8870769,58.5361981 80.2737274,59.0403321 78.5382735,59.0403321 L78.5382735,59.0403321 Z" fill="#000000"/></g><text x="0" y="115" fill="#000000" font-size="5px" font-weight="bold" font-family="'Helvetica Neue', Helvetica, Arial-Unicode, Arial, Sans-serif">Created by Icon Island</text><text x="0" y="120" fill="#000000" font-size="5px" font-weight="bold" font-family="'Helvetica Neue', Helvetica, Arial-Unicode, Arial, Sans-serif">from the Noun Project</text></svg>